<svg width="512" height="512" viewBox="0 0 512 512" fill="none" xmlns="http://www.w3.org/2000/svg">
<g clip-path="url(#clip0_68_1127)">
<path d="M377 0H135C60.4416 0 0 60.4416 0 135V377C0 451.558 60.4416 512 135 512H377C451.558 512 512 451.558 512 377V135C512 60.4416 451.558 0 377 0Z" fill="url(#paint0_linear_68_1127)"/>
<path d="M123.119 123.062C133.457 124.155 150.48 122.465 161.955 123.358C170.908 131.063 179.293 139.61 188.056 147.534C204.455 162.363 220.27 178.213 236.709 192.961L200.863 123.214C212.902 123.228 228.219 122.65 239.863 123.371C242.704 125.439 245.514 127.717 248.246 129.939C267.321 145.455 286.893 160.458 305.895 176.051C306.353 175.446 307.116 174.67 307.649 174.091C298.708 158.419 286.9 138.971 278.76 123.228C286.696 123.241 294.631 123.21 302.567 123.134C308.209 123.101 316.381 122.291 321.092 125.417C342.888 139.881 367.384 152.852 388.881 167.548C384.425 180.305 380.273 193.833 376.124 206.724L354.738 273.168C342.53 311.104 329.007 350.905 317.54 388.919L292.935 388.8C288.787 388.793 282.645 388.623 278.621 388.971L298.905 262.171C302.317 240.862 306.238 218.593 309.318 197.298C308.448 197.272 307.646 197.807 306.86 198.221L239.652 388.992C226.815 388.496 213.755 389.168 200.907 388.688L225.247 258.887L232.087 222.695C233.393 215.882 235.601 205.998 235.995 199.364C233.819 206.714 228.806 218.678 225.907 226.061L207.405 273.047L178.09 347.78C172.775 361.331 167.424 375.637 161.801 388.965C158.253 388.69 152.727 388.842 148.988 388.837C140.402 388.869 131.816 388.829 123.232 388.716C126.733 370.258 131.517 350.373 135.582 331.866L161.903 211.845C158.597 203.091 153.579 192.761 149.811 184.004C141.061 163.673 131.731 143.451 123.119 123.062Z" fill="#1D1C1D"/>
</g>
<defs>
<linearGradient id="paint0_linear_68_1127" x1="256" y1="0" x2="256" y2="512" gradientUnits="userSpaceOnUse">
<stop stop-color="#FF9A00"/>
<stop offset="1" stop-color="#FFB84C"/>
</linearGradient>
<clipPath id="clip0_68_1127">
<rect width="512" height="512" fill="white"/>
</clipPath>
</defs>
</svg>
